Coordinates
version=1
nRows=32
nColumns=18
inDegrees=yes

Units are S.I. units (second, meters, Newtons, ...)
If the header above contains a line with 'inDegrees', this indicates whether rotational values are in degrees (yes) or radians (no).

endheader
time	ground_thorax_rot_x	ground_thorax_rot_y	ground_thorax_rot_z	ground_thorax_tx	ground_thorax_ty	ground_thorax_tz	clav_prot	clav_elev	scapula_abduction	scapula_elevation	scapula_upward_rot	scapula_winging	plane_elv	shoulder_elv	axial_rot	elbow_flexion	pro_sup
      1.08000000	      3.52054895	     -4.60093600	     -8.52197813	     -0.00521139	      0.00434947	      0.00287937	    -23.00748214	     -0.03055845	    -15.70757570	     -0.20535691	     10.88834186	      4.94225493	    -14.24177262	     18.24167732	     38.75273832	      0.00000000	     34.32000000
      1.09000000	      3.04046589	     -4.39882930	     -8.47447115	     -0.00533161	      0.00475066	      0.00253673	    -22.92166562	      0.37559123	    -15.55771199	      0.04315779	     11.13308015	      4.80728214	    -13.96445468	     17.93744763	     38.61689520	      0.00000000	     34.32000000
      1.10000000	      3.41376346	     -4.59405211	     -8.36831611	     -0.00543864	      0.00472192	      0.00303453	    -22.75719167	      1.75829733	    -15.02715984	      0.75544224	     12.41157535	      4.24525460	    -13.16151874	     17.24221597	     37.85195685	      0.00000000	     34.32000000
      1.11000000	      3.44664200	     -4.64016788	     -8.36986951	     -0.00551513	      0.00472439	      0.00334131	    -22.63726078	      2.38651588	    -14.60820734	      1.03398452	     13.16438578	      3.95002702	    -13.19724785	     16.91162193	     37.10997770	      0.00000000	     34.32000000
      1.12000000	      3.42515790	     -4.52933171	     -8.40261798	     -0.00548888	      0.00470978	      0.00331474	    -22.62463806	      2.74033119	    -14.38248304	      1.14827531	     13.73146922	      3.74300549	    -13.57738747	     16.68655444	     36.36422438	      0.00000000	     34.32000000
      1.13000000	      3.09843884	     -4.41455487	     -8.41921506	     -0.00533942	      0.00478613	      0.00282754	    -22.63364049	      2.87516663	    -14.35827547	      1.20842978	     13.88464555	      3.68385491	    -13.53898443	     16.43389838	     36.31165279	      0.00000000	     34.32000000
      1.14000000	      2.95761222	     -4.33515457	     -8.49126298	     -0.00515740	      0.00487590	      0.00221920	    -22.98823366	      3.59827422	    -14.65866295	      1.46324385	     14.88677481	      3.31358339	    -13.07894091	     15.33016877	     36.34449388	      0.00000000	     34.32000000
      1.15000000	      2.19331236	     -4.29631617	     -8.39406151	     -0.00508493	      0.00526035	      0.00118323	    -23.04436059	      4.14333755	    -14.71162113	      1.75609466	     15.32125416	      3.14002705	    -12.83230387	     14.35019571	     36.33023248	      0.00000000	     34.32000000
      1.16000000	      2.29807525	     -4.09541518	     -8.41282540	     -0.00493766	      0.00531780	      0.00078205	    -23.45208952	      5.81113832	    -15.05814959	      2.53058192	     17.04725952	      2.50865932	    -12.00457740	     12.60589518	     36.66711125	      0.00000000	     34.32000000
      1.17000000	      2.15211042	     -3.60518787	     -8.38256037	     -0.00486486	      0.00551760	      0.00031488	    -23.76658095	      6.88854392	    -15.44102364	      3.05155629	     18.07551104	      2.14716322	    -11.60579473	     11.37839697	     37.16304006	      0.00000000	     34.32000000
      1.18000000	      1.79662560	     -3.39557131	     -8.37054672	     -0.00481425	      0.00565934	     -0.00008293	    -23.77689623	      7.27220992	    -15.39990091	      3.24405838	     18.44104815	      2.02831998	    -11.58688111	     10.85313039	     37.27408038	      0.00000000	     34.32000000
      1.19000000	      1.85682830	     -3.58494405	     -8.34848098	     -0.00499053	      0.00564302	      0.00003863	    -23.82974481	      7.87999162	    -15.22309915	      3.47790802	     19.28352881	      1.75556561	    -11.70774387	     10.16950197	     37.55761442	      0.00000000	     34.32000000
      1.20000000	      1.78142591	     -4.02902708	     -8.11366264	     -0.00524892	      0.00600346	      0.00018023	    -23.69170440	      8.38678081	    -14.50061254	      3.59382344	     20.34387004	      1.42428564	    -15.62822913	      8.69826554	     45.59207336	      0.00000000	     34.32000000
      1.21000000	      1.42024849	     -4.07100344	     -8.03693921	     -0.00537030	      0.00625385	     -0.00017371	    -23.67454994	      8.60833714	    -14.47579077	      3.72222553	     20.49661370	      1.38185178	    -15.57228662	      8.30338948	     45.55858668	      0.00000000	     34.32000000
      1.22000000	      1.40670712	     -4.07733771	     -8.06820133	     -0.00519299	      0.00622670	     -0.00034481	    -23.74260732	      9.16902865	    -14.46320162	      3.98466647	     21.09942938	      1.19947666	    -15.36010234	      7.70152470	     45.50657920	      0.00000000	     34.32000000
      1.23000000	      1.41131976	     -3.93926604	     -8.08758271	     -0.00507291	      0.00622442	     -0.00048854	    -23.84344160	      9.54198828	    -14.56705898	      4.15996853	     21.48418604	      1.08264213	    -15.14892644	      7.34943867	     45.48782695	      0.00000000	     34.32000000
      1.24000000	      1.46831086	     -3.87095149	     -8.08950959	     -0.00509411	      0.00621426	     -0.00049383	    -23.97976375	      9.93048722	    -14.72462681	      4.33781552	     21.89618318	      0.95662183	    -14.93500701	      7.04029352	     45.44560128	      0.00000000	     34.32000000
      1.25000000	      1.44414099	     -3.94163297	     -8.05037655	     -0.00515892	      0.00628069	     -0.00043966	    -24.07836005	     10.35904592	    -14.86053884	      4.55633302	     22.27674565	      0.84916491	    -14.70435306	      6.70681530	     45.31112070	      0.00000000	     34.32000000
      1.26000000	      1.21725689	     -3.98539577	     -8.00820679	     -0.00522508	      0.00646041	     -0.00058119	    -24.08230380	     10.62289421	    -14.88536642	      4.70931870	     22.45335098	      0.80921522	    -14.62924876	      6.39955515	     45.22322479	      0.00000000	     34.32000000
      1.27000000	      1.29732800	     -4.01790106	     -7.97842363	     -0.00523727	      0.00650873	     -0.00055843	    -24.08748496	     11.21029152	    -14.83728205	      5.01600605	     22.98346192	      0.67877847	    -14.43051747	      5.88068783	     45.01315844	      0.00000000	     34.32000000
      1.28000000	      1.08606730	     -3.91000484	     -7.97072875	     -0.00521524	      0.00663517	     -0.00082546	    -24.03662115	     11.39053642	    -14.80180217	      5.13857955	     23.04714200	      0.67923999	    -14.36127754	      5.54786356	     44.95762727	      0.00000000	     34.32000000
      1.29000000	      0.99845850	     -3.86916123	     -7.96737624	     -0.00507321	      0.00664581	     -0.00104072	    -24.07669867	     11.82394806	    -14.89465977	      5.38249633	     23.35900406	      0.61352822	    -14.16313118	      4.99029032	     44.86630846	      0.00000000	     34.32000000
      1.30000000	      0.72102042	     -3.81371980	     -7.96021599	     -0.00504902	      0.00677658	     -0.00156043	    -24.05435501	     12.02313317	    -14.92634722	      5.51809150	     23.41982758	      0.61740498	    -14.06878629	      4.58075818	     44.83541385	      0.00000000	     34.32000000
      1.31000000	      0.45158921	     -3.84215599	     -7.90116129	     -0.00509274	      0.00687019	     -0.00197035	    -24.05207387	     12.22270451	    -14.96791822	      5.64339659	     23.51753090	      0.60751906	    -13.95826637	      4.13764306	     44.81441627	      0.00000000	     34.32000000
      1.32000000	      0.77547698	     -4.05330396	     -7.96042103	     -0.00499855	      0.00668912	     -0.00183904	    -24.24370714	     12.98471382	    -15.10730144	      5.98015919	     24.40437130	      0.37538387	    -13.13126705	      3.36082694	     44.93921599	      0.00000000	     34.32000000
      1.33000000	      0.61200807	     -4.04976798	     -7.95427050	     -0.00493866	      0.00671978	     -0.00205583	    -24.24447961	     13.05192734	    -15.16755692	      6.03599633	     24.38181105	      0.39260155	    -13.04183855	      3.20742757	     44.94316851	      0.00000000	     34.32000000
      1.34000000	      0.61183903	     -4.08532393	     -7.98865618	     -0.00486501	      0.00670713	     -0.00200402	    -24.25311301	     13.06998855	    -15.20593393	      6.05262079	     24.36684688	      0.39952956	    -13.03733099	      3.20146203	     44.94194921	      0.00000000	     34.32000000
      1.35000000	      0.64273266	     -4.13405226	     -8.01303800	     -0.00492087	      0.00657052	     -0.00171440	    -24.26903214	     13.07498839	    -15.24812569	      6.05850478	     24.35362214	      0.40318949	    -13.04040900	      3.19932431	     44.93793794	      0.00000000	     34.32000000
      1.36000000	      0.67976510	     -4.20827978	     -8.00564917	     -0.00502347	      0.00656909	     -0.00149463	    -24.31020723	     13.07780626	    -15.29982895	      6.04962801	     24.38613114	      0.38750050	    -13.04981542	      3.19491748	     44.92602396	      0.00000000	     34.32000000
      1.37000000	      0.83672815	     -4.34665632	     -8.06128820	     -0.00509710	      0.00653353	     -0.00129795	    -24.44588197	     13.31611665	    -15.37553709	      6.11554921	     24.80227715	      0.25870167	    -13.11089940	      2.83081505	     44.77723741	      0.00000000	     34.32000000
      1.38000000	      0.75245644	     -4.46814279	     -8.02562770	     -0.00513760	      0.00656065	     -0.00138401	    -24.45624530	     13.35431461	    -15.43785476	      6.14959905	     24.77697915	      0.27192534	    -13.11084087	      2.73411182	     44.75944684	      0.00000000	     34.32000000
      1.39000000	      0.71924268	     -4.57763015	     -7.99578827	     -0.00525587	      0.00661644	     -0.00140731	    -24.48439977	     13.36399241	    -15.49131237	      6.15362270	     24.78182995	      0.26833432	    -13.11564774	      2.72594055	     44.75122690	      0.00000000	     34.32000000
